<mxfile host="app.diagrams.net" agent="Mozilla/5.0 (Macintosh; Intel Mac OS X 10_15_7) AppleWebKit/605.1.15 (KHTML, like Gecko) Version/17.5 Safari/605.1.15" version="27.0.1">
  <diagram name="第 1 页" id="cg6ItZnG26OR3nAv8xu3">
    <mxGraphModel dx="518" dy="546" grid="1" gridSize="10" guides="1" tooltips="1" connect="1" arrows="1" fold="1" page="1" pageScale="1" pageWidth="827" pageHeight="1169" math="0" shadow="0">
      <root>
        <mxCell id="0" />
        <mxCell id="1" parent="0" />
        <mxCell id="_iSHYALhIe9VgK2TE1Em-269" value="" style="rounded=0;whiteSpace=wrap;html=1;dashed=1;dashPattern=12 12;" vertex="1" parent="1">
          <mxGeometry x="377" y="716" width="367.25" height="70" as="geometry" />
        </mxCell>
        <mxCell id="_iSHYALhIe9VgK2TE1Em-270" value="" style="rounded=0;whiteSpace=wrap;html=1;dashed=1;dashPattern=12 12;" vertex="1" parent="1">
          <mxGeometry x="377" y="630" width="367" height="80" as="geometry" />
        </mxCell>
        <mxCell id="_iSHYALhIe9VgK2TE1Em-273" value="" style="html=1;verticalLabelPosition=bottom;align=center;labelBackgroundColor=#ffffff;verticalAlign=top;strokeWidth=1;strokeColor=#000000;shadow=0;dashed=0;shape=mxgraph.ios7.icons.cloud;" vertex="1" parent="1">
          <mxGeometry x="455.75" y="510" width="200" height="100" as="geometry" />
        </mxCell>
        <mxCell id="_iSHYALhIe9VgK2TE1Em-274" value="&lt;font style=&quot;font-size: 10px;&quot;&gt;云端节点集合&lt;/font&gt;" style="text;html=1;align=center;verticalAlign=middle;whiteSpace=wrap;rounded=0;fontStyle=1" vertex="1" parent="1">
          <mxGeometry x="540.25" y="517" width="68.5" height="30" as="geometry" />
        </mxCell>
        <mxCell id="_iSHYALhIe9VgK2TE1Em-275" value="&lt;font style=&quot;font-size: 10px;&quot;&gt;c&lt;sub&gt;&lt;font&gt;2&lt;/font&gt;&lt;/sub&gt;&lt;/font&gt;" style="rounded=1;whiteSpace=wrap;html=1;" vertex="1" parent="1">
          <mxGeometry x="534.25" y="547" width="31" height="23" as="geometry" />
        </mxCell>
        <mxCell id="_iSHYALhIe9VgK2TE1Em-276" value="&lt;font style=&quot;font-size: 10px;&quot;&gt;c&lt;sub&gt;1&lt;/sub&gt;&lt;/font&gt;" style="rounded=1;whiteSpace=wrap;html=1;" vertex="1" parent="1">
          <mxGeometry x="497.75" y="547" width="31" height="23" as="geometry" />
        </mxCell>
        <mxCell id="_iSHYALhIe9VgK2TE1Em-277" value="&lt;span style=&quot;font-size: 10px;&quot;&gt;...&lt;/span&gt;" style="text;html=1;align=center;verticalAlign=middle;whiteSpace=wrap;rounded=0;fontStyle=1" vertex="1" parent="1">
          <mxGeometry x="561.25" y="560.5" width="23.5" height="9.5" as="geometry" />
        </mxCell>
        <mxCell id="_iSHYALhIe9VgK2TE1Em-278" value="" style="rounded=0;whiteSpace=wrap;html=1;fillColor=#f5f5f5;fontColor=#333333;strokeColor=#000000;" vertex="1" parent="1">
          <mxGeometry x="492.25" y="589" width="127" height="10" as="geometry" />
        </mxCell>
        <mxCell id="_iSHYALhIe9VgK2TE1Em-279" value="" style="endArrow=open;html=1;rounded=0;verticalAlign=top;endFill=0;dashed=1;exitX=0.16;exitY=-0.08;exitDx=0;exitDy=0;exitPerimeter=0;startArrow=open;startFill=0;endSize=3;startSize=3;" edge="1" parent="1" source="_iSHYALhIe9VgK2TE1Em-278">
          <mxGeometry width="50" height="50" relative="1" as="geometry">
            <mxPoint x="512.75" y="600" as="sourcePoint" />
            <mxPoint x="512.75" y="570" as="targetPoint" />
          </mxGeometry>
        </mxCell>
        <mxCell id="_iSHYALhIe9VgK2TE1Em-280" value="" style="endArrow=open;html=1;rounded=0;verticalAlign=top;endFill=0;dashed=1;exitX=0.455;exitY=-0.107;exitDx=0;exitDy=0;entryX=0.5;entryY=1;entryDx=0;entryDy=0;exitPerimeter=0;endSize=3;startSize=3;startArrow=open;startFill=0;" edge="1" parent="1" source="_iSHYALhIe9VgK2TE1Em-278" target="_iSHYALhIe9VgK2TE1Em-275">
          <mxGeometry width="50" height="50" relative="1" as="geometry">
            <mxPoint x="522.75" y="609" as="sourcePoint" />
            <mxPoint x="522.75" y="580" as="targetPoint" />
          </mxGeometry>
        </mxCell>
        <mxCell id="_iSHYALhIe9VgK2TE1Em-281" value="&lt;font style=&quot;font-size: 10px;&quot;&gt;c&lt;/font&gt;&lt;font style=&quot;font-size: 8.33333px;&quot;&gt;&lt;sub&gt;r&lt;/sub&gt;&lt;/font&gt;" style="rounded=1;whiteSpace=wrap;html=1;" vertex="1" parent="1">
          <mxGeometry x="581.75" y="547" width="31" height="23" as="geometry" />
        </mxCell>
        <mxCell id="_iSHYALhIe9VgK2TE1Em-282" value="" style="endArrow=open;html=1;rounded=0;verticalAlign=top;endFill=0;dashed=1;exitX=0.829;exitY=-0.043;exitDx=0;exitDy=0;entryX=0.5;entryY=1;entryDx=0;entryDy=0;exitPerimeter=0;startArrow=open;startFill=0;endSize=3;startSize=3;" edge="1" parent="1" source="_iSHYALhIe9VgK2TE1Em-278" target="_iSHYALhIe9VgK2TE1Em-281">
          <mxGeometry width="50" height="50" relative="1" as="geometry">
            <mxPoint x="559.75" y="609" as="sourcePoint" />
            <mxPoint x="559.75" y="580" as="targetPoint" />
          </mxGeometry>
        </mxCell>
        <mxCell id="_iSHYALhIe9VgK2TE1Em-283" value="&lt;span style=&quot;font-size: 10px;&quot;&gt;...&lt;/span&gt;" style="text;html=1;align=center;verticalAlign=middle;whiteSpace=wrap;rounded=0;fontStyle=1" vertex="1" parent="1">
          <mxGeometry x="645.25" y="692" width="23.5" height="9.5" as="geometry" />
        </mxCell>
        <mxCell id="_iSHYALhIe9VgK2TE1Em-284" value="" style="group" vertex="1" connectable="0" parent="1">
          <mxGeometry x="513.25" y="746.5" width="27.75" height="23.57" as="geometry" />
        </mxCell>
        <mxCell id="_iSHYALhIe9VgK2TE1Em-285" value="" style="verticalLabelPosition=bottom;verticalAlign=top;html=1;shape=mxgraph.basic.diag_round_rect;dx=6;whiteSpace=wrap;" vertex="1" parent="_iSHYALhIe9VgK2TE1Em-284">
          <mxGeometry width="18" height="20" as="geometry" />
        </mxCell>
        <mxCell id="_iSHYALhIe9VgK2TE1Em-286" value="" style="sketch=0;outlineConnect=0;fontColor=#232F3E;gradientColor=none;fillColor=#7AA116;strokeColor=none;dashed=0;verticalLabelPosition=bottom;verticalAlign=top;align=center;html=1;fontSize=12;fontStyle=0;aspect=fixed;pointerEvents=1;shape=mxgraph.aws4.iot_thing_temperature_humidity_sensor;" vertex="1" parent="_iSHYALhIe9VgK2TE1Em-284">
          <mxGeometry x="6" y="4.25" width="15.75" height="15.75" as="geometry" />
        </mxCell>
        <mxCell id="_iSHYALhIe9VgK2TE1Em-287" value="" style="group" vertex="1" connectable="0" parent="1">
          <mxGeometry x="593" y="746.5" width="24.5" height="20" as="geometry" />
        </mxCell>
        <mxCell id="_iSHYALhIe9VgK2TE1Em-288" value="" style="verticalLabelPosition=bottom;verticalAlign=top;html=1;shape=mxgraph.basic.diag_round_rect;dx=6;whiteSpace=wrap;" vertex="1" parent="_iSHYALhIe9VgK2TE1Em-287">
          <mxGeometry x="1" width="18" height="20" as="geometry" />
        </mxCell>
        <mxCell id="_iSHYALhIe9VgK2TE1Em-289" value="" style="image;html=1;image=img/lib/clip_art/networking/Ip_Camera_128x128.png" vertex="1" parent="_iSHYALhIe9VgK2TE1Em-287">
          <mxGeometry x="8" y="7.139999999999986" width="16.5" height="12.86" as="geometry" />
        </mxCell>
        <mxCell id="_iSHYALhIe9VgK2TE1Em-290" value="&lt;span style=&quot;font-size: 10px;&quot;&gt;d&lt;sub&gt;2&lt;/sub&gt;&lt;/span&gt;" style="text;html=1;align=center;verticalAlign=middle;resizable=0;points=[];autosize=1;strokeColor=none;fillColor=none;" vertex="1" parent="1">
          <mxGeometry x="466.25" y="759.5" width="30" height="30" as="geometry" />
        </mxCell>
        <mxCell id="_iSHYALhIe9VgK2TE1Em-291" value="" style="shape=cube;whiteSpace=wrap;html=1;boundedLbl=1;backgroundOutline=1;darkOpacity=0.05;darkOpacity2=0.1;size=10;rotation=0;fillColor=default;container=0;" vertex="1" parent="1">
          <mxGeometry x="498.25" y="651" width="50" height="50.5" as="geometry" />
        </mxCell>
        <mxCell id="_iSHYALhIe9VgK2TE1Em-292" value="" style="strokeWidth=1;html=1;shape=mxgraph.flowchart.database;whiteSpace=wrap;container=0;" vertex="1" parent="1">
          <mxGeometry x="513.75" y="676" width="13.5" height="12.5" as="geometry" />
        </mxCell>
        <mxCell id="_iSHYALhIe9VgK2TE1Em-293" value="&lt;font style=&quot;font-size: 6px;&quot;&gt;influxdb&lt;/font&gt;" style="text;html=1;align=center;verticalAlign=middle;whiteSpace=wrap;rounded=0;container=0;" vertex="1" parent="1">
          <mxGeometry x="508.25" y="686" width="24.5" height="10.5" as="geometry" />
        </mxCell>
        <mxCell id="_iSHYALhIe9VgK2TE1Em-294" value="" style="rounded=1;whiteSpace=wrap;html=1;fillColor=#d5e8d4;strokeColor=#82b366;container=0;" vertex="1" parent="1">
          <mxGeometry x="531.75" y="682.25" width="12" height="10" as="geometry" />
        </mxCell>
        <mxCell id="_iSHYALhIe9VgK2TE1Em-295" value="" style="rounded=1;whiteSpace=wrap;html=1;fillColor=#f8cecc;strokeColor=#b85450;container=0;" vertex="1" parent="1">
          <mxGeometry x="531.5" y="666.5" width="12" height="10" as="geometry" />
        </mxCell>
        <mxCell id="_iSHYALhIe9VgK2TE1Em-296" value="" style="group" vertex="1" connectable="0" parent="1">
          <mxGeometry x="472" y="746.5" width="27.75" height="23.57" as="geometry" />
        </mxCell>
        <mxCell id="_iSHYALhIe9VgK2TE1Em-297" value="" style="verticalLabelPosition=bottom;verticalAlign=top;html=1;shape=mxgraph.basic.diag_round_rect;dx=6;whiteSpace=wrap;" vertex="1" parent="_iSHYALhIe9VgK2TE1Em-296">
          <mxGeometry width="18" height="20" as="geometry" />
        </mxCell>
        <mxCell id="_iSHYALhIe9VgK2TE1Em-298" value="" style="sketch=0;outlineConnect=0;fontColor=#232F3E;gradientColor=none;fillColor=#666666;strokeColor=none;dashed=0;verticalLabelPosition=bottom;verticalAlign=top;align=center;html=1;fontSize=12;fontStyle=0;aspect=fixed;pointerEvents=1;shape=mxgraph.aws4.iot_thing_humidity_sensor;" vertex="1" parent="_iSHYALhIe9VgK2TE1Em-296">
          <mxGeometry x="5.88" y="4" width="16" height="16" as="geometry" />
        </mxCell>
        <mxCell id="_iSHYALhIe9VgK2TE1Em-299" value="&lt;span style=&quot;font-size: 10px;&quot;&gt;d&lt;sub&gt;3&lt;/sub&gt;&lt;/span&gt;" style="text;html=1;align=center;verticalAlign=middle;resizable=0;points=[];autosize=1;strokeColor=none;fillColor=none;" vertex="1" parent="1">
          <mxGeometry x="508.5" y="759.5" width="30" height="30" as="geometry" />
        </mxCell>
        <mxCell id="_iSHYALhIe9VgK2TE1Em-300" value="" style="endArrow=openThin;html=1;rounded=0;entryX=0.5;entryY=1;entryDx=0;entryDy=0;exitX=0.5;exitY=0;exitDx=0;exitDy=0;exitPerimeter=0;endFill=0;endSize=3;dashed=1;dashPattern=1 2;edgeStyle=orthogonalEdgeStyle;" edge="1" parent="1" source="_iSHYALhIe9VgK2TE1Em-285" target="_iSHYALhIe9VgK2TE1Em-294">
          <mxGeometry width="50" height="50" relative="1" as="geometry">
            <mxPoint x="439" y="818.5" as="sourcePoint" />
            <mxPoint x="469" y="751.5" as="targetPoint" />
            <Array as="points">
              <mxPoint x="522" y="730" />
              <mxPoint x="538" y="730" />
            </Array>
          </mxGeometry>
        </mxCell>
        <mxCell id="_iSHYALhIe9VgK2TE1Em-301" value="" style="group" vertex="1" connectable="0" parent="1">
          <mxGeometry x="553" y="746.5" width="187" height="42.43000000000001" as="geometry" />
        </mxCell>
        <mxCell id="_iSHYALhIe9VgK2TE1Em-302" value="" style="verticalLabelPosition=bottom;verticalAlign=top;html=1;shape=mxgraph.basic.diag_round_rect;dx=6;whiteSpace=wrap;container=0;" vertex="1" parent="_iSHYALhIe9VgK2TE1Em-301">
          <mxGeometry width="18" height="20" as="geometry" />
        </mxCell>
        <mxCell id="_iSHYALhIe9VgK2TE1Em-303" value="" style="sketch=0;outlineConnect=0;fontColor=#232F3E;gradientColor=none;fillColor=light-dark(#b85450, #61820b);strokeColor=none;dashed=0;verticalLabelPosition=bottom;verticalAlign=top;align=center;html=1;fontSize=12;fontStyle=0;aspect=fixed;pointerEvents=1;shape=mxgraph.aws4.iot_thing_vibration_sensor;" vertex="1" parent="_iSHYALhIe9VgK2TE1Em-301">
          <mxGeometry x="10" y="3.57" width="13.5" height="13.5" as="geometry" />
        </mxCell>
        <mxCell id="_iSHYALhIe9VgK2TE1Em-304" value="&lt;span style=&quot;font-size: 10px;&quot;&gt;...&lt;/span&gt;" style="text;html=1;align=center;verticalAlign=middle;whiteSpace=wrap;rounded=0;fontStyle=1" vertex="1" parent="_iSHYALhIe9VgK2TE1Em-301">
          <mxGeometry x="97.25" y="16.5" width="23.5" height="9.5" as="geometry" />
        </mxCell>
        <mxCell id="_iSHYALhIe9VgK2TE1Em-305" value="" style="endArrow=openThin;html=1;rounded=0;endFill=0;endSize=3;dashed=1;dashPattern=1 2;edgeStyle=orthogonalEdgeStyle;entryX=1.011;entryY=0.55;entryDx=0;entryDy=0;exitX=0.41;exitY=-0.109;exitDx=0;exitDy=0;exitPerimeter=0;entryPerimeter=0;" edge="1" parent="1" source="_iSHYALhIe9VgK2TE1Em-302" target="_iSHYALhIe9VgK2TE1Em-295">
          <mxGeometry width="50" height="50" relative="1" as="geometry">
            <mxPoint x="560" y="778.5" as="sourcePoint" />
            <mxPoint x="544.5" y="719.5" as="targetPoint" />
            <Array as="points">
              <mxPoint x="560" y="672" />
            </Array>
          </mxGeometry>
        </mxCell>
        <mxCell id="_iSHYALhIe9VgK2TE1Em-306" value="" style="group" vertex="1" connectable="0" parent="1">
          <mxGeometry x="632" y="746.5" width="24.5" height="20" as="geometry" />
        </mxCell>
        <mxCell id="_iSHYALhIe9VgK2TE1Em-307" value="" style="verticalLabelPosition=bottom;verticalAlign=top;html=1;shape=mxgraph.basic.diag_round_rect;dx=6;whiteSpace=wrap;" vertex="1" parent="_iSHYALhIe9VgK2TE1Em-306">
          <mxGeometry width="18" height="20" as="geometry" />
        </mxCell>
        <mxCell id="_iSHYALhIe9VgK2TE1Em-308" value="" style="image;html=1;image=img/lib/clip_art/networking/Ip_Camera_128x128.png" vertex="1" parent="_iSHYALhIe9VgK2TE1Em-306">
          <mxGeometry x="8" y="7.139999999999986" width="16.5" height="12.86" as="geometry" />
        </mxCell>
        <mxCell id="_iSHYALhIe9VgK2TE1Em-309" value="&lt;span style=&quot;font-size: 10px;&quot;&gt;d&lt;sub&gt;4&lt;/sub&gt;&lt;/span&gt;" style="text;html=1;align=center;verticalAlign=middle;resizable=0;points=[];autosize=1;strokeColor=none;fillColor=none;" vertex="1" parent="1">
          <mxGeometry x="547.5" y="759.5" width="30" height="30" as="geometry" />
        </mxCell>
        <mxCell id="_iSHYALhIe9VgK2TE1Em-310" value="&lt;span style=&quot;font-size: 10px;&quot;&gt;d&lt;sub&gt;5&lt;/sub&gt;&lt;/span&gt;" style="text;html=1;align=center;verticalAlign=middle;resizable=0;points=[];autosize=1;strokeColor=none;fillColor=none;" vertex="1" parent="1">
          <mxGeometry x="587.5" y="759.5" width="30" height="30" as="geometry" />
        </mxCell>
        <mxCell id="_iSHYALhIe9VgK2TE1Em-311" value="&lt;span style=&quot;font-size: 10px;&quot;&gt;d&lt;sub&gt;6&lt;/sub&gt;&lt;/span&gt;" style="text;html=1;align=center;verticalAlign=middle;resizable=0;points=[];autosize=1;strokeColor=none;fillColor=none;" vertex="1" parent="1">
          <mxGeometry x="627.5" y="759.5" width="30" height="30" as="geometry" />
        </mxCell>
        <mxCell id="_iSHYALhIe9VgK2TE1Em-312" value="" style="group" vertex="1" connectable="0" parent="1">
          <mxGeometry x="670.5" y="746.5" width="24.5" height="20" as="geometry" />
        </mxCell>
        <mxCell id="_iSHYALhIe9VgK2TE1Em-313" value="" style="verticalLabelPosition=bottom;verticalAlign=top;html=1;shape=mxgraph.basic.diag_round_rect;dx=6;whiteSpace=wrap;" vertex="1" parent="_iSHYALhIe9VgK2TE1Em-312">
          <mxGeometry width="18" height="20" as="geometry" />
        </mxCell>
        <mxCell id="_iSHYALhIe9VgK2TE1Em-314" value="" style="image;html=1;image=img/lib/clip_art/networking/Ip_Camera_128x128.png" vertex="1" parent="_iSHYALhIe9VgK2TE1Em-312">
          <mxGeometry x="8" y="7.139999999999986" width="16.5" height="12.86" as="geometry" />
        </mxCell>
        <mxCell id="_iSHYALhIe9VgK2TE1Em-315" value="&lt;span style=&quot;font-size: 10px;&quot;&gt;d&lt;/span&gt;&lt;sub&gt;&lt;font style=&quot;font-size: 8.3333px;&quot;&gt;n-1&lt;/font&gt;&lt;/sub&gt;" style="text;html=1;align=center;verticalAlign=middle;resizable=0;points=[];autosize=1;strokeColor=none;fillColor=none;" vertex="1" parent="1">
          <mxGeometry x="660" y="759.5" width="40" height="30" as="geometry" />
        </mxCell>
        <mxCell id="_iSHYALhIe9VgK2TE1Em-316" value="" style="group" vertex="1" connectable="0" parent="1">
          <mxGeometry x="707.75" y="746.5" width="27.75" height="23.57" as="geometry" />
        </mxCell>
        <mxCell id="_iSHYALhIe9VgK2TE1Em-317" value="" style="verticalLabelPosition=bottom;verticalAlign=top;html=1;shape=mxgraph.basic.diag_round_rect;dx=6;whiteSpace=wrap;" vertex="1" parent="_iSHYALhIe9VgK2TE1Em-316">
          <mxGeometry width="18" height="20" as="geometry" />
        </mxCell>
        <mxCell id="_iSHYALhIe9VgK2TE1Em-318" value="" style="sketch=0;outlineConnect=0;fontColor=#232F3E;gradientColor=none;fillColor=#7AA116;strokeColor=none;dashed=0;verticalLabelPosition=bottom;verticalAlign=top;align=center;html=1;fontSize=12;fontStyle=0;aspect=fixed;pointerEvents=1;shape=mxgraph.aws4.iot_thing_temperature_humidity_sensor;" vertex="1" parent="_iSHYALhIe9VgK2TE1Em-316">
          <mxGeometry x="6" y="4.25" width="15.75" height="15.75" as="geometry" />
        </mxCell>
        <mxCell id="_iSHYALhIe9VgK2TE1Em-319" value="&lt;span style=&quot;font-size: 10px;&quot;&gt;d&lt;sub&gt;n&lt;/sub&gt;&lt;/span&gt;" style="text;html=1;align=center;verticalAlign=middle;resizable=0;points=[];autosize=1;strokeColor=none;fillColor=none;" vertex="1" parent="1">
          <mxGeometry x="703" y="759.5" width="30" height="30" as="geometry" />
        </mxCell>
        <mxCell id="_iSHYALhIe9VgK2TE1Em-320" value="" style="group" vertex="1" connectable="0" parent="1">
          <mxGeometry x="415" y="757.5899999999999" width="30" height="41" as="geometry" />
        </mxCell>
        <mxCell id="_iSHYALhIe9VgK2TE1Em-321" value="" style="group" vertex="1" connectable="0" parent="_iSHYALhIe9VgK2TE1Em-320">
          <mxGeometry x="13" y="-10" width="24.5" height="20" as="geometry" />
        </mxCell>
        <mxCell id="_iSHYALhIe9VgK2TE1Em-322" value="" style="verticalLabelPosition=bottom;verticalAlign=top;html=1;shape=mxgraph.basic.diag_round_rect;dx=6;whiteSpace=wrap;" vertex="1" parent="_iSHYALhIe9VgK2TE1Em-321">
          <mxGeometry width="18" height="20" as="geometry" />
        </mxCell>
        <mxCell id="_iSHYALhIe9VgK2TE1Em-323" value="" style="image;html=1;image=img/lib/clip_art/networking/Ip_Camera_128x128.png" vertex="1" parent="_iSHYALhIe9VgK2TE1Em-321">
          <mxGeometry x="8" y="7.139999999999986" width="16.5" height="12.86" as="geometry" />
        </mxCell>
        <mxCell id="_iSHYALhIe9VgK2TE1Em-324" value="&lt;span style=&quot;font-size: 10px;&quot;&gt;d&lt;sub&gt;1&lt;/sub&gt;&lt;/span&gt;" style="text;html=1;align=center;verticalAlign=middle;resizable=0;points=[];autosize=1;strokeColor=none;fillColor=none;" vertex="1" parent="_iSHYALhIe9VgK2TE1Em-320">
          <mxGeometry x="7.5" y="3" width="30" height="30" as="geometry" />
        </mxCell>
        <mxCell id="_iSHYALhIe9VgK2TE1Em-325" value="&lt;font style=&quot;font-size: 10px;&quot;&gt;边缘节点集合&lt;/font&gt;" style="text;html=1;align=center;verticalAlign=middle;whiteSpace=wrap;rounded=0;fontStyle=1" vertex="1" parent="1">
          <mxGeometry x="374.25" y="628" width="74.25" height="20.5" as="geometry" />
        </mxCell>
        <mxCell id="_iSHYALhIe9VgK2TE1Em-326" value="&lt;font size=&quot;1&quot;&gt;设备集合&lt;/font&gt;" style="text;html=1;align=center;verticalAlign=middle;whiteSpace=wrap;rounded=0;fontStyle=1" vertex="1" parent="1">
          <mxGeometry x="379" y="715" width="43.75" height="21.75" as="geometry" />
        </mxCell>
        <mxCell id="_iSHYALhIe9VgK2TE1Em-327" value="" style="shape=cube;whiteSpace=wrap;html=1;boundedLbl=1;backgroundOutline=1;darkOpacity=0.05;darkOpacity2=0.1;size=9;rotation=0;movable=1;resizable=1;rotatable=1;deletable=1;editable=1;locked=0;connectable=1;" vertex="1" parent="1">
          <mxGeometry x="423.75" y="651" width="50" height="50.5" as="geometry" />
        </mxCell>
        <mxCell id="_iSHYALhIe9VgK2TE1Em-328" value="" style="strokeWidth=1;html=1;shape=mxgraph.flowchart.database;whiteSpace=wrap;movable=1;resizable=1;rotatable=1;deletable=1;editable=1;locked=0;connectable=1;" vertex="1" parent="1">
          <mxGeometry x="438.75" y="675" width="13.5" height="12.5" as="geometry" />
        </mxCell>
        <mxCell id="_iSHYALhIe9VgK2TE1Em-329" value="&lt;font style=&quot;font-size: 6px;&quot;&gt;mysql&lt;/font&gt;" style="text;html=1;align=center;verticalAlign=middle;whiteSpace=wrap;rounded=0;movable=1;resizable=1;rotatable=1;deletable=1;editable=1;locked=0;connectable=1;" vertex="1" parent="1">
          <mxGeometry x="433.25" y="685" width="24.5" height="10.5" as="geometry" />
        </mxCell>
        <mxCell id="_iSHYALhIe9VgK2TE1Em-330" value="" style="rounded=1;whiteSpace=wrap;html=1;fillColor=#f5f5f5;strokeColor=#666666;fontColor=#333333;movable=1;resizable=1;rotatable=1;deletable=1;editable=1;locked=0;connectable=1;" vertex="1" parent="1">
          <mxGeometry x="456.5" y="665.5" width="12" height="10" as="geometry" />
        </mxCell>
        <mxCell id="_iSHYALhIe9VgK2TE1Em-331" value="" style="rounded=1;whiteSpace=wrap;html=1;fillColor=#dae8fc;strokeColor=#6c8ebf;movable=1;resizable=1;rotatable=1;deletable=1;editable=1;locked=0;connectable=1;" vertex="1" parent="1">
          <mxGeometry x="456.5" y="682.25" width="12" height="10" as="geometry" />
        </mxCell>
        <mxCell id="_iSHYALhIe9VgK2TE1Em-332" value="" style="group" vertex="1" connectable="0" parent="1">
          <mxGeometry x="423.75" y="791" width="301.5" height="17.680000000000007" as="geometry" />
        </mxCell>
        <mxCell id="_iSHYALhIe9VgK2TE1Em-333" value="" style="rounded=1;whiteSpace=wrap;html=1;fillColor=#f8cecc;strokeColor=#b85450;container=0;fontStyle=1" vertex="1" parent="_iSHYALhIe9VgK2TE1Em-332">
          <mxGeometry x="113" y="4.680000000000007" width="12" height="10" as="geometry" />
        </mxCell>
        <mxCell id="_iSHYALhIe9VgK2TE1Em-334" value="" style="rounded=1;whiteSpace=wrap;html=1;fillColor=#f5f5f5;strokeColor=#666666;container=0;fontColor=#333333;fontStyle=1" vertex="1" parent="_iSHYALhIe9VgK2TE1Em-332">
          <mxGeometry x="128.5" y="4.930000000000007" width="12" height="10" as="geometry" />
        </mxCell>
        <mxCell id="_iSHYALhIe9VgK2TE1Em-335" value="" style="rounded=1;whiteSpace=wrap;html=1;fillColor=#dae8fc;strokeColor=#6c8ebf;container=0;fontStyle=1" vertex="1" parent="_iSHYALhIe9VgK2TE1Em-332">
          <mxGeometry x="144" y="4.680000000000007" width="12" height="10" as="geometry" />
        </mxCell>
        <mxCell id="_iSHYALhIe9VgK2TE1Em-336" value="&lt;font style=&quot;font-size: 7px;&quot;&gt;设备管理器&lt;/font&gt;" style="text;html=1;align=center;verticalAlign=middle;whiteSpace=wrap;rounded=0;fontStyle=1" vertex="1" parent="_iSHYALhIe9VgK2TE1Em-332">
          <mxGeometry x="163" y="3.3000000000000114" width="64" height="10.5" as="geometry" />
        </mxCell>
        <mxCell id="_iSHYALhIe9VgK2TE1Em-337" value="" style="rounded=1;whiteSpace=wrap;html=1;fillColor=#d5e8d4;strokeColor=#82b366;fontStyle=1" vertex="1" parent="_iSHYALhIe9VgK2TE1Em-332">
          <mxGeometry x="160" y="4.930000000000007" width="12" height="10" as="geometry" />
        </mxCell>
        <mxCell id="_iSHYALhIe9VgK2TE1Em-338" value="" style="rounded=1;whiteSpace=wrap;html=1;fontStyle=1" vertex="1" parent="_iSHYALhIe9VgK2TE1Em-332">
          <mxGeometry y="4.180000000000007" width="16.5" height="9.5" as="geometry" />
        </mxCell>
        <mxCell id="_iSHYALhIe9VgK2TE1Em-339" value="&lt;font style=&quot;font-size: 7px;&quot;&gt;云端节点&lt;/font&gt;" style="text;html=1;align=center;verticalAlign=middle;whiteSpace=wrap;rounded=0;fontStyle=1" vertex="1" parent="_iSHYALhIe9VgK2TE1Em-332">
          <mxGeometry x="16.5" y="3.930000000000007" width="37" height="10.5" as="geometry" />
        </mxCell>
        <mxCell id="_iSHYALhIe9VgK2TE1Em-340" value="" style="strokeWidth=1;html=1;shape=mxgraph.flowchart.database;whiteSpace=wrap;fontStyle=1" vertex="1" parent="_iSHYALhIe9VgK2TE1Em-332">
          <mxGeometry x="222.5" y="3.180000000000007" width="13.5" height="12.5" as="geometry" />
        </mxCell>
        <mxCell id="_iSHYALhIe9VgK2TE1Em-341" value="" style="shape=image;verticalLabelPosition=bottom;labelBackgroundColor=default;verticalAlign=top;aspect=fixed;imageAspect=0;image=data:image/png,iVBORw0KGgoAAAANSUhEUgAAARwAAAFECAYAAAD1KYF6AAAAAXNSR0IArs4c6QAADolJREFUeF7t3U2S3dYVBOHmOrhLcaSR5ZFG1C65jrYYkoNqNUm8n8IFTuFThEfGK1xkAhltD+wPL/5BAAEEFhH4sOg+boMAAgi8CI6XAAEElhEQnGWo3QgBBATHO4AAAssICM4y1G6EAAKC4x1AAIFlBARnGWo3QgABwfEOIIDAMgKCswy1GyGAgOB4BxBAYBkBwVmG2o0QQEBwvAMIILCMgOAsQ+1GCCAgON4BBBBYRkBwlqF2IwQQEBzvAAIILCMgOMtQuxECCAiOdwABBJYREJxlqN0IAQQExzuAAALLCAjOMtRuhAACguMdQACBZQQEZxlqN0IAAcHxDiCAwDICgrMMtRshgIDgeAcQQGAZAcFZhtqNEEBAcLwDCCCwjIDgLEPtRgggIDjeAQQQWEZAcJahdiMEEBAc7wACCCwjIDjLULsRAggIjncAAQSWERCcZajdCAEEBMc7gAACywgIzjLUboQAAoLjHUAAgWUEBGcZajdCAIEJwXmlCYGTEPjvn+f47SRnGXkMwRmpzaEPJCA6T8AXnCfg+ellCYjOg+oF50FwfnZ5AqLzwCswOji//vrry9d/+QeBPQn8/vvvL1//9Z1/ROdO8KOD8/VZRedO4y5/iIDoPITt3Y/GB0d0Mi+ClW0CorPNaOuKccH59OnTy+fPn989l790tlT79xMEROc5iuOC8+XLl5c//vhDdJ7z7tdPEBCdx+GNDM7XxxWdx6X75fMEROcxhmODIzqPCferHAHRuZ/l6OCIzv3C/SJLQHTu4zk+OKJzn3BX5wmIzu1MK4IjOrcLd+U+BETnNq41wRGd24S7aj8CorPNtio4orMt3BX7EhCdn/OtC47o7PtBWd8mIDo/ZlQZHNHZ/ihcsS8B0fk+39rgiM6+H5T1bQKi855RdXBEZ/ujcMW+BETnLd/64IjOvh+U9W0CovON0SWCIzrbH4Ur9iUgOn/xvUxwRGffD8r6NgHRuVhwRGf7o3DFvgSuHp1L/YXz/1fJ/7TFvh+V9Z8TuHJ0Lhkcf+lIwtEErhqdywZHdI7+5Nz/itG5dHBEx0d/NIGrRefywRGdoz85979SdATn7/fdf5Hswz+SwFWiIzj/eMtE58hPzr2vEB3B+dd7Ljo+/CMJtEdHcL7zdonOkZ+cezdHR3B+8H6Ljg//SAKt0RGcn7xVonPkJ+fejdERnI33WnR8+EcSaIuO4NzwNonODZBcshuBpugIzo2viejcCMpluxBoiY7g3PF6iM4dsFwaJ9AQHcG587UQnTuBuTxKYHp0BOeB1+FH0Xlgyk8QSBL4759jvyUH01uC8yBR0XkQnJ/tTeDU3/SpD/e3mdd/Gvry5cvewm7eF52bUblwHYFTf9OnPtzZg/P1fB8/flz3KrkTAtsETv1Nn/pwE4Pz+vrmD7Lt18MVCDxB4MOHd5/wqb/pUx9OcJ54E/30EgQEJ6/5tP8dzvf+I5W/cPIvgMUfExCc/NshOHmmFksICE5epODkmVosISA4eZGCk2dqsYSA4ORFCk6eqcUSAoKTFyk4eaYWSwgITl6k4OSZWiwhIDh5kYKTZ2qxhIDg5EUKTp6pxRICgpMXKTh5phZLCAhOXqTg5JlaLCEgOHmRgpNnarGEgODkRQpOnqnFEgKCkxcpOHmmFksICE5epODkmVosISA4eZGCk2dqsYSA4ORFCk6eqcUSAoKTFyk4eaYWSwgITl6k4OSZWiwhIDh5kYKTZ2qxhIDg5EUKTp6pxRICgpMXKTh5phZLCAhOXqTg5JlaLCEgOHmRgpNnarGEgODkRQpOnqnFEgKCkxcpOHmmFksICE5epODkmVosISA4eZGCk2dqsYSA4ORFCk6eqcUSAoKTFyk4eaYWSwgITl6k4OSZWiwhIDh5kYKTZ2qxhIDg5EUKTp6pxRICgpMXKTh5phZLCAhOXqTg5JlaLCEgOHmRgpNnarGEgODkRQpOnqnFEgKCkxcpOHmmFksICE5epODkmVosISA4eZGCk2dqsYSA4ORFCk6eqcUSAoKTFyk4eaYWSwgITl6k4OSZWiwhIDh5kYKTZ2qxhIDg5EUKTp6pxRICgpMXKTh5phZLCAhOXqTg5JlaLCEgOHmRgpNnarGEgODkRQpOnqnFEgKCkxcpOHmmFksICE5epODkmVosISA4eZGCk2dqsYSA4ORFCk6eqcUSAoKTFyk4eaYWSwgITl6k4OSZWiwhIDh5kYKTZ2qxhIDg5EUKTp6pxRICgpMXKTh5phZLCAhOXqTg5JlaLCEgOHmRgpNnarGEgODkRQpOnqnFEgKCkxcpOHmmFksICE5epODkmVosISA4eZGCk2dqsYSA4ORFCk6eqcUSAoKTFyk4eaYWSwgITl6k4OSZWiwhIDh5kYKTZ2qxhIDg5EUKTp6pxRICgpMXKTh5phZLCAhOXqTg5JlaLCEgOHmRgpNnarGEgODkRQpOnqnFEgKCkxcpOHmmFksICE5epODkmVosISA4eZGCk2dqsYSA4ORFCk6eqcUSAoKTFyk4eaYWSwgITl6k4OSZWiwhIDh5kYKTZ2qxhIDg5EUKTp6pxRICgpMXKTh5phZLCAhOXqTg5JlaLCEgOHmRgpNnarGEgODkRQpOnqnFEgKCkxcpOHmmFksICE5epODkmVosISA4eZGCk2dqsYSA4ORFCk6eqcUSAoKTFyk4eaYWSwgITl6k4OSZWiwhIDh5kYKTZ2qxhIDg5EUKTp6pxRICgpMXKTh5phZLCAhOXqTg5JlaLCEgOHmRgpNnarGEgODkRQpOnqnFEgKCkxcpOHmmFksICE5epODkmVosISA4eZGCk2dqsYSA4ORFCk6eqcUSAoKTFyk4eaYWSwgITl6k4OSZWiwhIDh5kYKTZ2qxhIDg5EUKTp6pxRICgpMXKTh5phZLCAhOXqTg5JlaLCEgOHmRgpNnarGEgODkRQpOnqnFEgKCkxcpOHmmFksICE5epODkmVosISA4eZGCk2dqsYSA4ORFCk6eqcUSAoKTFyk4eaYWSwgITl6k4OSZWiwhIDh5kYKTZ2qxhIDg5EUKTp6pxRICgpMXKTh5phZLCAhOXqTg5JlaLCEgOHmRgpNnarGEgODkRQpOnqnFEgKCkxcpOHmmFksICE5epODkmVosISA4eZGCk2dqsYSA4ORFCk6eqcUSAoKTFyk4eaYWSwgITl6k4OSZWiwhIDh5kYKTZ2qxhIDg5EUKTp6pxRICgpMXKTh5phZLCAhOXqTg5JlaLCEgOHmRgpNnarGEgODkRQpOnqnFEgKCkxcpOHmmFksICE5epODkmVosISA4eZGCk2dqsYSA4ORFCk6eqcUSAoKTFyk4eaYWSwgITl6k4OSZWiwhIDh5kYKTZ2qxhIDg5EUKTp6pxRICgpMXKTh5phZLCAhOXqTg5JlaLCEgOHmRgpNnarGEgODkRQpOnqnFEgKCkxcpOHmmFksICE5epODkmVosISA4eZGCk2dqsYSA4ORFCk6eqcUSAoKTFyk4eaYWSwgITl6k4OSZWiwhIDh5kYKTZ2qxhIDg5EUKTp6pxRICgpMXKTh5phZLCAhOXqTg5JlaLCEgOHmRb4Lz6dOnl19++SV/lwcXP378+OaXr69vjvvgqp8hcBsBwbmN0z1XvfuCzxQdwblHpWvTBAQnTfTl5beXl5f//Hv2LNERnLxwi7cTEJzbWd1z5WmjIzj3aHRtmoDgpIl+2ztldARnP+GWtwkIzjajZ644XXQE5xmdfvssAcF5luD2708VHcHZFuaK/QgIzn5s/7l8mugIzhrh7vJ9AoKz7s04RXQEZ51wd3pPQHDWvhWHR0dw1gp3t7cEBGf9G3FodARnvXB3/EZAcI55Gw6LjuAcI9xd/yIgOMe9CYdER3COE+7OgnP0O7A8OoJztPJr399fOMf7XxodwTle+JVPIDjnsL8sOoJzDuFXPYXgnMf8kugIznmEX/EkgnMu67tHR3DOJfxqpxGc8xnfNTqCcz7hVzqR4JzT9m7REZxzCr/KqQTnvKZ3iY7gnFf4FU4mOOe2HI+O4JxbePvpBOf8hqPREZzzC28+oeDMsBuLjuDMEN56SsGZYzYSHcGZI7zxpIIzy+rT0RGcWcLbTis484w+FR3BmSe86cSCM9Pmw9ERnJnCW04tOHNNPhQdwZkrvOHkgjPb4t3REZzZwqefXnCmG7zz/8tccOYLn/wEgjPZ3rez3/yXjuB0CJ/6FIIz1dz7c98UHcHpET7xSQRnorUfn3kzOoLTJXza0wjONGPb5/1pdARnG6Ar9iMgOPuxPXL5h9H5/Pnzm3O9vr4eeU73vhgBwekV/t3o/PtxBaf3BTjjkwnOGa3kzrQZHcHJwba0TUBwthlNv+Kn0RGc6XpnnV9wZvl69LSbf+k8Oux3CDxJ4MOTv9/156c+3K5P/vy46DzP0EKewKm/6VMfLu8ivig6caQGnyRw6m/61Id7Evyqn4vOKtLucwuBU3/Tpz7cLXRdgwACcwgIzhxXTorAeAKCM16hB0BgDgHBmePKSREYT0Bwxiv0AAjMISA4c1w5KQLjCQjOeIUeAIE5BARnjisnRWA8AcEZr9ADIDCHgODMceWkCIwnIDjjFXoABOYQEJw5rpwUgfEEBGe8Qg+AwBwCgjPHlZMiMJ6A4IxX6AEQmENAcOa4clIExhMQnPEKPQACcwgIzhxXTorAeAKCM16hB0BgDgHBmePKSREYT0Bwxiv0AAjMISA4c1w5KQLjCQjOeIUeAIE5BARnjisnRWA8AcEZr9ADIDCHgODMceWkCIwnIDjjFXoABOYQEJw5rpwUgfEEBGe8Qg+AwBwCgjPHlZMiMJ6A4IxX6AEQmENAcOa4clIExhMQnPEKPQACcwgIzhxXTorAeAKCM16hB0BgDgHBmePKSREYT0Bwxiv0AAjMISA4c1w5KQLjCQjOeIUeAIE5BARnjisnRWA8gf8BrBRdri7OPKMAAAAASUVORK5CYII=;" vertex="1" parent="_iSHYALhIe9VgK2TE1Em-332">
          <mxGeometry x="56.5" width="15.5" height="17.68" as="geometry" />
        </mxCell>
        <mxCell id="_iSHYALhIe9VgK2TE1Em-342" value="&lt;font style=&quot;font-size: 7px;&quot;&gt;边端节点&lt;/font&gt;" style="text;html=1;align=center;verticalAlign=middle;whiteSpace=wrap;rounded=0;fontStyle=1" vertex="1" parent="_iSHYALhIe9VgK2TE1Em-332">
          <mxGeometry x="69.75" y="3.680000000000007" width="37" height="10.5" as="geometry" />
        </mxCell>
        <mxCell id="_iSHYALhIe9VgK2TE1Em-343" value="&lt;font style=&quot;font-size: 7px;&quot;&gt;数据库&lt;/font&gt;" style="text;html=1;align=center;verticalAlign=middle;whiteSpace=wrap;rounded=0;fontStyle=1" vertex="1" parent="_iSHYALhIe9VgK2TE1Em-332">
          <mxGeometry x="233.25" y="5.560000000000002" width="37" height="6.75" as="geometry" />
        </mxCell>
        <mxCell id="_iSHYALhIe9VgK2TE1Em-344" value="" style="verticalLabelPosition=bottom;verticalAlign=top;html=1;shape=mxgraph.basic.diag_round_rect;dx=6;whiteSpace=wrap;fontStyle=1" vertex="1" parent="_iSHYALhIe9VgK2TE1Em-332">
          <mxGeometry x="270.5" y="3.019999999999982" width="8" height="11.07" as="geometry" />
        </mxCell>
        <mxCell id="_iSHYALhIe9VgK2TE1Em-345" value="&lt;font style=&quot;font-size: 7px;&quot;&gt;设备&lt;/font&gt;" style="text;html=1;align=center;verticalAlign=middle;whiteSpace=wrap;rounded=0;fontStyle=1" vertex="1" parent="_iSHYALhIe9VgK2TE1Em-332">
          <mxGeometry x="278.5" y="6.050000000000011" width="24" height="6.75" as="geometry" />
        </mxCell>
        <mxCell id="_iSHYALhIe9VgK2TE1Em-346" value="" style="endArrow=openThin;html=1;rounded=0;endFill=0;endSize=3;dashed=1;dashPattern=1 2;edgeStyle=orthogonalEdgeStyle;entryX=1;entryY=0.5;entryDx=0;entryDy=0;exitX=0.5;exitY=0;exitDx=0;exitDy=0;exitPerimeter=0;" edge="1" parent="1" target="_iSHYALhIe9VgK2TE1Em-330" source="_iSHYALhIe9VgK2TE1Em-297">
          <mxGeometry width="50" height="50" relative="1" as="geometry">
            <mxPoint x="481" y="770" as="sourcePoint" />
            <mxPoint x="470" y="718.5" as="targetPoint" />
            <Array as="points">
              <mxPoint x="481" y="670" />
              <mxPoint x="468" y="670" />
            </Array>
          </mxGeometry>
        </mxCell>
        <mxCell id="_iSHYALhIe9VgK2TE1Em-347" value="" style="shape=cube;whiteSpace=wrap;html=1;boundedLbl=1;backgroundOutline=1;darkOpacity=0.05;darkOpacity2=0.1;size=10;rotation=0;" vertex="1" parent="1">
          <mxGeometry x="574.25" y="651" width="50" height="51.5" as="geometry" />
        </mxCell>
        <mxCell id="_iSHYALhIe9VgK2TE1Em-348" value="" style="rounded=1;whiteSpace=wrap;html=1;fillColor=#dae8fc;strokeColor=#6c8ebf;" vertex="1" parent="1">
          <mxGeometry x="598.25" y="678.25" width="12" height="10" as="geometry" />
        </mxCell>
        <mxCell id="_iSHYALhIe9VgK2TE1Em-349" value="" style="shape=cube;whiteSpace=wrap;html=1;boundedLbl=1;backgroundOutline=1;darkOpacity=0.05;darkOpacity2=0.1;size=10;rotation=0;" vertex="1" parent="1">
          <mxGeometry x="673.75" y="651" width="50" height="51.5" as="geometry" />
        </mxCell>
        <mxCell id="_iSHYALhIe9VgK2TE1Em-350" value="&lt;font style=&quot;font-size: 6px;&quot;&gt;tdengine&lt;/font&gt;" style="text;html=1;align=center;verticalAlign=middle;whiteSpace=wrap;rounded=0;" vertex="1" parent="1">
          <mxGeometry x="686" y="685.5" width="24.5" height="10.5" as="geometry" />
        </mxCell>
        <mxCell id="_iSHYALhIe9VgK2TE1Em-351" value="" style="strokeWidth=1;html=1;shape=mxgraph.flowchart.database;whiteSpace=wrap;" vertex="1" parent="1">
          <mxGeometry x="690.5" y="675.5" width="13.5" height="12.5" as="geometry" />
        </mxCell>
        <mxCell id="_iSHYALhIe9VgK2TE1Em-352" value="" style="rounded=1;whiteSpace=wrap;html=1;fillColor=#dae8fc;strokeColor=#6c8ebf;" vertex="1" parent="1">
          <mxGeometry x="709.5" y="681.5" width="12" height="10" as="geometry" />
        </mxCell>
        <mxCell id="_iSHYALhIe9VgK2TE1Em-353" value="" style="rounded=1;whiteSpace=wrap;html=1;fillColor=#d5e8d4;strokeColor=#82b366;" vertex="1" parent="1">
          <mxGeometry x="709.5" y="667.5" width="12" height="10" as="geometry" />
        </mxCell>
        <mxCell id="_iSHYALhIe9VgK2TE1Em-354" style="edgeStyle=orthogonalEdgeStyle;rounded=0;orthogonalLoop=1;jettySize=auto;html=1;exitX=0;exitY=0;exitDx=20;exitDy=0;exitPerimeter=0;entryX=0.391;entryY=-0.017;entryDx=0;entryDy=0;entryPerimeter=0;" edge="1" parent="1" source="_iSHYALhIe9VgK2TE1Em-347" target="_iSHYALhIe9VgK2TE1Em-347">
          <mxGeometry relative="1" as="geometry" />
        </mxCell>
        <mxCell id="_iSHYALhIe9VgK2TE1Em-357" value="" style="endArrow=openThin;html=1;rounded=0;endFill=0;endSize=3;dashed=1;dashPattern=1 2;edgeStyle=orthogonalEdgeStyle;exitX=0.5;exitY=0;exitDx=0;exitDy=0;exitPerimeter=0;entryX=0.5;entryY=1;entryDx=0;entryDy=0;" edge="1" parent="1" source="_iSHYALhIe9VgK2TE1Em-322" target="_iSHYALhIe9VgK2TE1Em-331">
          <mxGeometry width="50" height="50" relative="1" as="geometry">
            <mxPoint x="440" y="788.5" as="sourcePoint" />
            <mxPoint x="459.5" y="741.25" as="targetPoint" />
            <Array as="points">
              <mxPoint x="437" y="730" />
              <mxPoint x="463" y="730" />
              <mxPoint x="463" y="731" />
            </Array>
          </mxGeometry>
        </mxCell>
        <mxCell id="_iSHYALhIe9VgK2TE1Em-361" value="" style="endArrow=classic;startArrow=classic;html=1;rounded=0;entryX=0.25;entryY=1;entryDx=0;entryDy=0;" edge="1" parent="1" source="_iSHYALhIe9VgK2TE1Em-349" target="_iSHYALhIe9VgK2TE1Em-278">
          <mxGeometry width="50" height="50" relative="1" as="geometry">
            <mxPoint x="700" y="650" as="sourcePoint" />
            <mxPoint x="609.892" y="598.73" as="targetPoint" />
            <Array as="points">
              <mxPoint x="699.8200000000002" y="620.19" />
              <mxPoint x="524" y="620" />
            </Array>
          </mxGeometry>
        </mxCell>
        <mxCell id="_iSHYALhIe9VgK2TE1Em-363" value="" style="endArrow=openThin;html=1;rounded=0;entryX=1;entryY=0.5;entryDx=0;entryDy=0;endFill=0;endSize=3;dashed=1;dashPattern=1 2;edgeStyle=orthogonalEdgeStyle;exitX=0.5;exitY=0;exitDx=0;exitDy=0;exitPerimeter=0;" edge="1" parent="1" source="_iSHYALhIe9VgK2TE1Em-307" target="_iSHYALhIe9VgK2TE1Em-348">
          <mxGeometry width="50" height="50" relative="1" as="geometry">
            <mxPoint x="640" y="788.5" as="sourcePoint" />
            <mxPoint x="616.5" y="727.25" as="targetPoint" />
            <Array as="points">
              <mxPoint x="641" y="740" />
              <mxPoint x="640" y="740" />
              <mxPoint x="640" y="683" />
            </Array>
          </mxGeometry>
        </mxCell>
        <mxCell id="_iSHYALhIe9VgK2TE1Em-364" value="" style="endArrow=openThin;html=1;rounded=0;entryX=0.5;entryY=1;entryDx=0;entryDy=0;endFill=0;endSize=3;dashed=1;dashPattern=1 2;edgeStyle=orthogonalEdgeStyle;exitX=0.565;exitY=-0.001;exitDx=0;exitDy=0;exitPerimeter=0;" edge="1" parent="1" source="_iSHYALhIe9VgK2TE1Em-288" target="_iSHYALhIe9VgK2TE1Em-348">
          <mxGeometry width="50" height="50" relative="1" as="geometry">
            <mxPoint x="604" y="799" as="sourcePoint" />
            <mxPoint x="600" y="732.5" as="targetPoint" />
            <Array as="points">
              <mxPoint x="604" y="740" />
              <mxPoint x="604" y="740" />
            </Array>
          </mxGeometry>
        </mxCell>
        <mxCell id="_iSHYALhIe9VgK2TE1Em-365" value="" style="endArrow=openThin;html=1;rounded=0;entryX=0.5;entryY=1;entryDx=0;entryDy=0;exitX=0.5;exitY=0;exitDx=0;exitDy=0;exitPerimeter=0;endFill=0;endSize=3;dashed=1;dashPattern=1 2;edgeStyle=orthogonalEdgeStyle;" edge="1" parent="1" source="_iSHYALhIe9VgK2TE1Em-313" target="_iSHYALhIe9VgK2TE1Em-352">
          <mxGeometry width="50" height="50" relative="1" as="geometry">
            <mxPoint x="752" y="849.5" as="sourcePoint" />
            <mxPoint x="839.75" y="771.5" as="targetPoint" />
            <Array as="points">
              <mxPoint x="680" y="730" />
              <mxPoint x="716" y="730" />
            </Array>
          </mxGeometry>
        </mxCell>
        <mxCell id="_iSHYALhIe9VgK2TE1Em-366" value="" style="endArrow=openThin;html=1;rounded=0;entryX=1;entryY=0.5;entryDx=0;entryDy=0;endFill=0;endSize=3;dashed=1;dashPattern=1 2;edgeStyle=orthogonalEdgeStyle;exitX=0.681;exitY=0.008;exitDx=0;exitDy=0;exitPerimeter=0;" edge="1" parent="1" source="_iSHYALhIe9VgK2TE1Em-317" target="_iSHYALhIe9VgK2TE1Em-353">
          <mxGeometry width="50" height="50" relative="1" as="geometry">
            <mxPoint x="720" y="788.5" as="sourcePoint" />
            <mxPoint x="708" y="721.5" as="targetPoint" />
            <Array as="points">
              <mxPoint x="720" y="730" />
              <mxPoint x="730" y="730" />
              <mxPoint x="730" y="673" />
            </Array>
          </mxGeometry>
        </mxCell>
        <mxCell id="_iSHYALhIe9VgK2TE1Em-367" value="&lt;font style=&quot;font-size: 10px;&quot;&gt;e&lt;/font&gt;&lt;font style=&quot;font-size: 8px;&quot;&gt;&lt;sub&gt;1&lt;/sub&gt;&lt;/font&gt;" style="text;html=1;align=center;verticalAlign=middle;whiteSpace=wrap;rounded=0;" vertex="1" parent="1">
          <mxGeometry x="432.75" y="661" width="23.75" height="10" as="geometry" />
        </mxCell>
        <mxCell id="_iSHYALhIe9VgK2TE1Em-368" value="&lt;font style=&quot;font-size: 10px;&quot;&gt;e&lt;/font&gt;&lt;font style=&quot;font-size: 8px;&quot;&gt;&lt;sub&gt;2&lt;/sub&gt;&lt;/font&gt;" style="text;html=1;align=center;verticalAlign=middle;whiteSpace=wrap;rounded=0;" vertex="1" parent="1">
          <mxGeometry x="507.63" y="662" width="23.75" height="10" as="geometry" />
        </mxCell>
        <mxCell id="_iSHYALhIe9VgK2TE1Em-369" value="&lt;font style=&quot;font-size: 10px;&quot;&gt;e&lt;/font&gt;&lt;font style=&quot;font-size: 8px;&quot;&gt;&lt;sub&gt;3&lt;/sub&gt;&lt;/font&gt;" style="text;html=1;align=center;verticalAlign=middle;whiteSpace=wrap;rounded=0;" vertex="1" parent="1">
          <mxGeometry x="583.25" y="662" width="23.75" height="10" as="geometry" />
        </mxCell>
        <mxCell id="_iSHYALhIe9VgK2TE1Em-370" value="&lt;font style=&quot;font-size: 10px;&quot;&gt;e&lt;/font&gt;&lt;font style=&quot;font-size: 8px;&quot;&gt;&lt;sub&gt;m&lt;/sub&gt;&lt;/font&gt;" style="text;html=1;align=center;verticalAlign=middle;whiteSpace=wrap;rounded=0;" vertex="1" parent="1">
          <mxGeometry x="684" y="662" width="23.75" height="10" as="geometry" />
        </mxCell>
        <mxCell id="_iSHYALhIe9VgK2TE1Em-371" value="" style="endArrow=classic;startArrow=classic;html=1;rounded=0;exitX=0;exitY=0;exitDx=20;exitDy=0;exitPerimeter=0;entryX=0.784;entryY=1.034;entryDx=0;entryDy=0;entryPerimeter=0;" edge="1" parent="1" source="_iSHYALhIe9VgK2TE1Em-347" target="_iSHYALhIe9VgK2TE1Em-278">
          <mxGeometry width="50" height="50" relative="1" as="geometry">
            <mxPoint x="709" y="680" as="sourcePoint" />
            <mxPoint x="609" y="600" as="targetPoint" />
            <Array as="points">
              <mxPoint x="594" y="620" />
              <mxPoint x="592" y="620" />
            </Array>
          </mxGeometry>
        </mxCell>
        <mxCell id="_iSHYALhIe9VgK2TE1Em-372" value="" style="endArrow=classic;startArrow=classic;html=1;rounded=0;exitX=0;exitY=0;exitDx=20;exitDy=0;exitPerimeter=0;entryX=0.783;entryY=1.057;entryDx=0;entryDy=0;entryPerimeter=0;" edge="1" parent="1" source="_iSHYALhIe9VgK2TE1Em-291" target="_iSHYALhIe9VgK2TE1Em-278">
          <mxGeometry width="50" height="50" relative="1" as="geometry">
            <mxPoint x="604" y="680" as="sourcePoint" />
            <mxPoint x="610" y="600" as="targetPoint" />
            <Array as="points">
              <mxPoint x="518" y="620" />
              <mxPoint x="592" y="620" />
            </Array>
          </mxGeometry>
        </mxCell>
        <mxCell id="_iSHYALhIe9VgK2TE1Em-373" value="" style="endArrow=classic;startArrow=classic;html=1;rounded=0;exitX=0;exitY=0;exitDx=20.5;exitDy=0;exitPerimeter=0;entryX=0.25;entryY=1;entryDx=0;entryDy=0;" edge="1" parent="1" source="_iSHYALhIe9VgK2TE1Em-327" target="_iSHYALhIe9VgK2TE1Em-278">
          <mxGeometry width="50" height="50" relative="1" as="geometry">
            <mxPoint x="528" y="680" as="sourcePoint" />
            <mxPoint x="540" y="600" as="targetPoint" />
            <Array as="points">
              <mxPoint x="444" y="620" />
              <mxPoint x="524" y="620" />
            </Array>
          </mxGeometry>
        </mxCell>
      </root>
    </mxGraphModel>
  </diagram>
</mxfile>
